<svg width="19" xmlns="http://www.w3.org/2000/svg" viewBox="0 0 82.83 55.12"><g id="Calque_2" data-name="Calque 2"><g id="Calque_1-2" data-name="Calque 1"><path d="M82.53,13.32,41.66,0a.42.42,0,0,0-.27,0L.31,13.11a.45.45,0,0,0-.31.42A.44.44,0,0,0,.3,14l10,3.44V29.31a4.83,4.83,0,0,0,0,8.82l-2.63,17h8.79l-2.2-17a4.83,4.83,0,0,0,0-8.82V18.74l27,9.24.14,0,.14,0,41-13.83a.44.44,0,0,0,.3-.42A.43.43,0,0,0,82.53,13.32Z"/><path d="M41.38,30.2a2.77,2.77,0,0,1-.86-.14L19.06,22.7V38.41c0,4.41,10.14,8,22.65,8s22.65-3.58,22.65-8V22.6L42.22,30.06A2.64,2.64,0,0,1,41.38,30.2Z"/></g></g></svg>
