<svg width="12" xmlns="http://www.w3.org/2000/svg" viewBox="0 0 16.98 25.62"><g id="Calque_2" data-name="Calque 2"><g id="Calque_1-2" data-name="Calque 1"><path d="M11.84,19.16H5.13a.85.85,0,1,0,0,1.69h6.71a.85.85,0,0,0,0-1.69Z"/><path d="M6.74,24.19v.47a1,1,0,0,0,1,1H9.06a1,1,0,0,0,1-1v-.45a2.08,2.08,0,0,0,2-2.06H5A2.08,2.08,0,0,0,6.74,24.19Z"/><path d="M8.48,0A8.6,8.6,0,0,0,0,8.71,8.92,8.92,0,0,0,.62,12l.16.39a8.73,8.73,0,0,0,1.46,2.24L4.4,17.93h8.18l2.16-3.32a8.69,8.69,0,0,0,1.45-2.24c.06-.13.12-.26.17-.39A8.92,8.92,0,0,0,17,8.71,8.61,8.61,0,0,0,8.48,0ZM8.1,3.21A5.66,5.66,0,0,0,5.57,4C4,4.94,3.11,6.68,3.07,9.1a.84.84,0,0,1-.84.83h0a.85.85,0,0,1-.83-.86h0c.06-3.86,1.88-5.71,3.4-6.59a7.28,7.28,0,0,1,3.31-.95.85.85,0,1,1,0,1.69Z"/></g></g></svg>
